<svg width="16" height="28" viewBox="0 0 16 28" fill="none" xmlns="http://www.w3.org/2000/svg">
<path d="M6.22501 14L15.075 5.14999C15.5406 4.68159 15.802 4.04796 15.802 3.38749C15.802 2.72703 15.5406 2.0934 15.075 1.62499C14.8426 1.39067 14.5661 1.20469 14.2615 1.07776C13.9568 0.950843 13.63 0.885498 13.3 0.885498C12.97 0.885498 12.6432 0.950843 12.3386 1.07776C12.0339 1.20469 11.7574 1.39067 11.525 1.62499L0.925012 12.225C0.690691 12.4574 0.504706 12.7339 0.377784 13.0386C0.250863 13.3432 0.185516 13.67 0.185516 14C0.185516 14.33 0.250863 14.6568 0.377784 14.9614C0.504706 15.2661 0.690691 15.5426 0.925012 15.775L11.525 26.5C11.7586 26.7317 12.0357 26.915 12.3402 27.0394C12.6448 27.1638 12.971 27.2269 13.3 27.225C13.629 27.2269 13.9552 27.1638 14.2598 27.0394C14.5644 26.915 14.8414 26.7317 15.075 26.5C15.5406 26.0316 15.802 25.398 15.802 24.7375C15.802 24.077 15.5406 23.4434 15.075 22.975L6.22501 14Z" fill="#824EC6"/>
</svg>
