<svg id="Layer_1" data-name="Layer 1" xmlns="http://www.w3.org/2000/svg" viewBox="0 0 36 36.1">
  <defs>
    <style>
      .cls-1 {
        fill: #473263;
      }
    </style>
  </defs>
  <title>close_button</title>
  <path class="cls-1" d="M21.2,18,35.3,3.9A2.36,2.36,0,0,0,36,2.3,2,2,0,0,0,35.3.7,2.36,2.36,0,0,0,33.7,0a2,2,0,0,0-1.6.7L18,14.8,3.9.7A2.13,2.13,0,0,0,2.3,0,2,2,0,0,0,.7.7,2,2,0,0,0,0,2.3,2,2,0,0,0,.7,3.9L14.8,18,.7,32.1a3,3,0,0,0-.5.7,2.92,2.92,0,0,0-.2.9,2.92,2.92,0,0,0,.2.9,1.79,1.79,0,0,0,.5.7,3,3,0,0,0,.7.5,2.92,2.92,0,0,0,.9.2,2.92,2.92,0,0,0,.9-.2,1.79,1.79,0,0,0,.7-.5L18,21.2,32.1,35.4a3,3,0,0,0,.7.5,2.39,2.39,0,0,0,.9.2,2.92,2.92,0,0,0,.9-.2,1.79,1.79,0,0,0,.7-.5,3,3,0,0,0,.5-.7,2.92,2.92,0,0,0,.2-.9,2.92,2.92,0,0,0-.2-.9,1.79,1.79,0,0,0-.5-.7Z" transform="translate(0 0)"/>
</svg>
