<?xml version="1.0" encoding="utf-8"?>
<!-- Generator: Adobe Illustrator 23.1.0, SVG Export Plug-In . SVG Version: 6.00 Build 0)  -->
<svg version="1.1" id="Layer_1" xmlns="http://www.w3.org/2000/svg" xmlns:xlink="http://www.w3.org/1999/xlink" x="0px" y="0px"
	 viewBox="0 0 36 36" style="enable-background:new 0 0 36 36;" xml:space="preserve">
<style type="text/css">
	.st0{fill:#473263;}
</style>
<path class="st0" d="M21.2,18L35.3,3.9c0.4-0.4,0.7-1,0.7-1.6s-0.2-1.2-0.7-1.6c-0.4-0.4-1-0.7-1.6-0.7c-0.6,0-1.2,0.2-1.6,0.7
	L18,14.8L3.9,0.7C3.4,0.2,2.9,0,2.3,0S1.1,0.2,0.7,0.7C0.2,1.1,0,1.7,0,2.3s0.2,1.2,0.7,1.6L14.8,18L0.7,32.1
	c-0.2,0.2-0.4,0.5-0.5,0.7C0.1,33.1,0,33.4,0,33.7c0,0.3,0.1,0.6,0.2,0.9c0.1,0.3,0.3,0.5,0.5,0.7c0.2,0.2,0.5,0.4,0.7,0.5
	C1.7,35.9,2,36,2.3,36s0.6-0.1,0.9-0.2c0.3-0.1,0.5-0.3,0.7-0.5L18,21.2l14.1,14.2c0.2,0.2,0.5,0.4,0.7,0.5s0.6,0.2,0.9,0.2
	c0.3,0,0.6-0.1,0.9-0.2s0.5-0.3,0.7-0.5c0.2-0.2,0.4-0.5,0.5-0.7c0.1-0.3,0.2-0.6,0.2-0.9c0-0.3-0.1-0.6-0.2-0.9
	c-0.1-0.3-0.3-0.5-0.5-0.7L21.2,18z"/>
</svg>
