<?xml version="1.0" encoding="utf-8"?>
<!-- Generator: Adobe Illustrator 23.1.0, SVG Export Plug-In . SVG Version: 6.00 Build 0)  -->
<svg version="1.1" id="Layer_1" xmlns="http://www.w3.org/2000/svg" xmlns:xlink="http://www.w3.org/1999/xlink" x="0px" y="0px"
	 viewBox="0 0 1417.3 1417.3" style="enable-background:new 0 0 1417.3 1417.3;" xml:space="preserve">
<style type="text/css">
	.st0{fill-rule:evenodd;clip-rule:evenodd;}
</style>
<path class="st0" d="M1243.8,708.6c0.1,293.5-232.9,531.5-520.5,531.6c-205.6,0.1-392-123.4-475.7-315L86.7,991.9
	c153.4,358.7,562.6,522.6,914.1,366.1c253-112.7,416.5-367.6,416.6-649.4C1417.3,317.3,1106.6,0,723.2,0
	C508,0,305,101.8,173.5,275.7V59.1H0v472.4L86.8,620h404.9V442.9H272.1c143.7-254.2,462.1-341.5,711.1-194.8
	C1144.5,343,1243.8,518.6,1243.8,708.6z"/>
</svg>
