<?xml version="1.0" encoding="utf-8"?>
<!-- Generator: Adobe Illustrator 23.1.0, SVG Export Plug-In . SVG Version: 6.00 Build 0)  -->
<svg version="1.1" id="Layer_1" xmlns="http://www.w3.org/2000/svg" xmlns:xlink="http://www.w3.org/1999/xlink" x="0px" y="0px"
	 viewBox="0 0 36 36" style="enable-background:new 0 0 36 36;" xml:space="preserve">
<style type="text/css">
	.st0{clip-path:url(#SVGID_2_);}
	.st1{fill:#473263;}
</style>
<g>
	<defs>
		<rect id="SVGID_1_" x="5" y="0" width="26" height="36"/>
	</defs>
	<clipPath id="SVGID_2_">
		<use xlink:href="#SVGID_1_"  style="overflow:visible;"/>
	</clipPath>
	<g class="st0">
		<path class="st1" d="M15.8,33.7c0,0.6-0.4,1.2-1.1,1.6C14,35.8,13.1,36,12.1,36c-0.9,0-1.9-0.2-2.6-0.6c-0.7-0.5-1.1-1-1.1-1.6
			V2.3c0-0.6,0.4-1.2,1.1-1.6C10.2,0.2,11.2,0,12.1,0c0.9,0,1.9,0.2,2.6,0.6c0.7,0.5,1.1,1,1.1,1.6V33.7z"/>
		<path class="st1" d="M28.1,33.8c0,0.6-0.4,1.2-1.1,1.6c-0.7,0.5-1.7,0.6-2.6,0.6c-0.9,0-1.9-0.2-2.6-0.6c-0.7-0.5-1.1-1-1.1-1.6
			V2.3c0-0.6,0.4-1.2,1.1-1.6c0.8-0.5,1.7-0.7,2.7-0.7c0.9,0,1.9,0.2,2.6,0.6c0.7,0.5,1.1,1,1.1,1.6v31.6H28.1z"/>
	</g>
</g>
</svg>
