<svg id="Layer_1" data-name="Layer 1" xmlns="http://www.w3.org/2000/svg" xmlns:xlink="http://www.w3.org/1999/xlink" viewBox="0 0 19.8 36">
  <defs>
    <style>
      .cls-1 {
        fill: none;
      }

      .cls-2 {
        clip-path: url(#clip-path);
      }

      .cls-3 {
        fill: #473263;
      }
    </style>
    <clipPath id="clip-path" transform="translate(-8.4 0)">
      <rect class="cls-1" x="5" width="26" height="36"/>
    </clipPath>
  </defs>
  <title>pause_button</title>
  <g class="cls-2">
    <g>
      <path class="cls-3" d="M15.8,33.7a1.94,1.94,0,0,1-1.1,1.6,4.41,4.41,0,0,1-2.6.7,5.54,5.54,0,0,1-2.6-.6,2.08,2.08,0,0,1-1.1-1.6V2.3A1.94,1.94,0,0,1,9.5.7,4.62,4.62,0,0,1,12.1,0a5.54,5.54,0,0,1,2.6.6,2.08,2.08,0,0,1,1.1,1.6Z" transform="translate(-8.4 0)"/>
      <path class="cls-3" d="M28.1,33.8A1.94,1.94,0,0,1,27,35.4a4.56,4.56,0,0,1-2.6.6,5.54,5.54,0,0,1-2.6-.6,2.08,2.08,0,0,1-1.1-1.6V2.3A1.94,1.94,0,0,1,21.8.7,5,5,0,0,1,24.5,0a5.54,5.54,0,0,1,2.6.6,2.08,2.08,0,0,1,1.1,1.6V33.8Z" transform="translate(-8.4 0)"/>
    </g>
  </g>
</svg>
