<?xml version="1.0" encoding="utf-8"?>
<!-- Generator: Adobe Illustrator 23.1.0, SVG Export Plug-In . SVG Version: 6.00 Build 0)  -->
<svg version="1.1" id="Layer_1" xmlns="http://www.w3.org/2000/svg" xmlns:xlink="http://www.w3.org/1999/xlink" x="0px" y="0px"
	 viewBox="0 0 36 36" style="enable-background:new 0 0 36 36;" xml:space="preserve">
<style type="text/css">
	.st0{fill:#473263;}
</style>
<path class="st0" d="M32.2,24.3h-8.1c-0.5,0-0.9,0.2-1.3,0.5c-0.4,0.4-0.5,0.7-0.5,1.3s0.2,0.9,0.5,1.3c0.4,0.4,0.7,0.5,1.3,0.5h4.3
	c-2,2.2-4.5,3.4-7.4,4.1c-2.9,0.5-5.8,0.4-8.5-0.7s-5-2.9-6.5-5.2c-1.6-2.3-2.5-5.2-2.5-8.1c0-0.5-0.2-0.9-0.5-1.3
	c-0.4-0.4-0.7-0.5-1.3-0.5s-0.9,0.2-1.3,0.5C0.2,17.1,0,17.5,0,18c0,3.6,1.1,7,3.1,9.9s4.7,5.2,7.9,6.7c3.2,1.4,6.8,1.8,10.3,1.3
	c3.4-0.5,6.7-2.2,9.2-4.7v3.1c0,0.5,0.2,0.9,0.5,1.3c0.4,0.4,0.7,0.5,1.3,0.5c0.5,0,0.9-0.2,1.3-0.5s0.5-0.7,0.5-1.3v-8.1
	c0-0.5-0.2-0.9-0.5-1.3C33.1,24.5,32.8,24.3,32.2,24.3z"/>
<path class="st0" d="M18,0C13.3,0,9,1.8,5.6,5V1.8c0-0.5-0.2-0.9-0.5-1.3C4.7,0.2,4.3,0,3.8,0S2.9,0.2,2.5,0.5C2.2,0.9,2,1.3,2,1.8
	v8.1c0,0.5,0.2,0.9,0.5,1.3c0.4,0.4,0.7,0.5,1.3,0.5h8.1c0.5,0,0.9-0.2,1.3-0.5c0.4-0.4,0.5-0.7,0.5-1.3S13.5,9,13.1,8.6
	c-0.4-0.4-0.7-0.5-1.3-0.5H7.6c2-2.2,4.5-3.4,7.4-4.1c2.9-0.5,5.8-0.4,8.5,0.7s5,2.9,6.5,5.2c1.6,2.3,2.5,5.2,2.5,8.1
	c0,0.5,0.2,0.9,0.5,1.3s0.7,0.5,1.3,0.5c0.5,0,0.9-0.2,1.3-0.5S36,18.5,36,18c0-2.3-0.5-4.7-1.4-6.8S32.4,7,30.8,5.2
	c-1.6-1.6-3.6-3.1-5.8-4C22.7,0.5,20.3,0,18,0z"/>
</svg>
