<svg id="Layer_1" data-name="Layer 1" xmlns="http://www.w3.org/2000/svg" viewBox="0 0 36 36.11">
  <defs>
    <style>
      .cls-1 {
        fill: #473263;
      }
    </style>
  </defs>
  <title>restart_button</title>
  <path class="cls-1" d="M32.2,24.3H24.1a2.11,2.11,0,0,0-1.3.5,1.54,1.54,0,0,0-.5,1.3,1.9,1.9,0,0,0,.5,1.3,1.54,1.54,0,0,0,1.3.5h4.3A14,14,0,0,1,21,32a15.35,15.35,0,0,1-8.5-.7A14,14,0,0,1,6,26.1,14.36,14.36,0,0,1,3.5,18,2.11,2.11,0,0,0,3,16.7a1.54,1.54,0,0,0-1.3-.5,1.9,1.9,0,0,0-1.3.5A2.84,2.84,0,0,0,0,18a17.34,17.34,0,0,0,3.1,9.9A19.74,19.74,0,0,0,11,34.6a19,19,0,0,0,10.3,1.3,16.65,16.65,0,0,0,9.2-4.7v3.1a2.11,2.11,0,0,0,.5,1.3,1.54,1.54,0,0,0,1.3.5,2.11,2.11,0,0,0,1.3-.5,1.43,1.43,0,0,0,.5-1.3V26.2a2.11,2.11,0,0,0-.5-1.3A2,2,0,0,0,32.2,24.3Z" transform="translate(0 0)"/>
  <path class="cls-1" d="M18,0A17.9,17.9,0,0,0,5.6,5V1.8A2.11,2.11,0,0,0,5.1.5,2.11,2.11,0,0,0,3.8,0,2.11,2.11,0,0,0,2.5.5,2.11,2.11,0,0,0,2,1.8V9.9a2.11,2.11,0,0,0,.5,1.3,1.54,1.54,0,0,0,1.3.5h8.1a2.11,2.11,0,0,0,1.3-.5,1.54,1.54,0,0,0,.5-1.3,1.61,1.61,0,0,0-.6-1.3,1.54,1.54,0,0,0-1.3-.5H7.6A14,14,0,0,1,15,4a15.35,15.35,0,0,1,8.5.7A14,14,0,0,1,30,9.9,14.36,14.36,0,0,1,32.5,18a2.11,2.11,0,0,0,.5,1.3,1.43,1.43,0,0,0,1.3.5,2.11,2.11,0,0,0,1.3-.5c.4-.3.4-.8.4-1.3a17.6,17.6,0,0,0-1.4-6.8,22.5,22.5,0,0,0-3.8-6,18.22,18.22,0,0,0-5.8-4A24.5,24.5,0,0,0,18,0Z" transform="translate(0 0)"/>
</svg>
