<svg id="a9939d02-7f74-4ebc-8851-4eca61989fc9" data-name="Layer 1" xmlns="http://www.w3.org/2000/svg" viewBox="0 0 30 27">
  <defs>
    <style>
      .b33a9f0d-ee46-436b-87ba-7a5ab3c9b3d6 {
        fill: #824ec6;
      }
    </style>
  </defs>
  <title>watch-chess-tv</title>
  <path class="b33a9f0d-ee46-436b-87ba-7a5ab3c9b3d6" d="M16.25,16.17a1.55,1.55,0,0,0-.54-.48,1.49,1.49,0,0,0-1.42,0,1.44,1.44,0,0,0-.53.48l-6,9a1.44,1.44,0,0,0-.21.75,1.39,1.39,0,0,0,.21.75,1.37,1.37,0,0,0,.51.58A1.49,1.49,0,0,0,9,27.5H21a1.5,1.5,0,0,0,.77-.22,1.53,1.53,0,0,0,.55-.58,1.41,1.41,0,0,0,.16-.76,1.53,1.53,0,0,0-.23-.74ZM11.81,24.5,15,19.7l3.19,4.8ZM25.5.5H4.5A4.51,4.51,0,0,0,0,5V18.5A4.51,4.51,0,0,0,4.5,23H5.78a1.53,1.53,0,0,0,1.06-.44,1.5,1.5,0,0,0,0-2.12A1.53,1.53,0,0,0,5.78,20H4.5A1.5,1.5,0,0,1,3,18.5V5A1.5,1.5,0,0,1,4.5,3.5h21A1.5,1.5,0,0,1,27,5V18.5A1.5,1.5,0,0,1,25.5,20H24.23a1.54,1.54,0,0,0-1.07.44,1.52,1.52,0,0,0,0,2.12,1.54,1.54,0,0,0,1.07.44H25.5A4.51,4.51,0,0,0,30,18.5V5A4.51,4.51,0,0,0,25.5.5Z" transform="translate(0 -0.5)"/>
</svg>
